{
  "accessors": [
    {
      "name": "Line1006_1_0_positions",
      "componentType": 5126,
      "count": 24,
      "min": [
        -38.58089828491211,
        -0.19140000641345978,
        -27.704299926757812
      ],
      "max": [
        -20.045000076293945,
        0.2793000042438507,
        13.560600280761719
      ],
      "type": "VEC3",
      "bufferView": 0,
      "byteOffset": 0
    },
    {
      "name": "Line1006_1_0_normals",
      "componentType": 5126,
      "count": 24,
      "min": [
        -1,
        -1,
        -1
      ],
      "max": [
        1,
        1,
        1
      ],
      "type": "VEC3",
      "bufferView": 1,
      "byteOffset": 0
    },
    {
      "name": "Line1006_1_0_indices",
      "componentType": 5123,
      "count": 36,
      "min": [
        0
      ],
      "max": [
        23
      ],
      "type": "SCALAR",
      "bufferView": 2,
      "byteOffset": 0
    },
    {
      "name": "Rectangle212_1_0_positions",
      "componentType": 5126,
      "count": 96,
      "min": [
        -19.993600845336914,
        0.22619999945163727,
        -10.53969955444336
      ],
      "max": [
        -18.52910041809082,
        5.711900234222412,
        -9.178600311279297
      ],
      "type": "VEC3",
      "bufferView": 0,
      "byteOffset": 288
    },
    {
      "name": "Rectangle212_1_0_normals",
      "componentType": 5126,
      "count": 96,
      "min": [
        -1,
        -1,
        -1
      ],
      "max": [
        1,
        1,
        1
      ],
      "type": "VEC3",
      "bufferView": 1,
      "byteOffset": 288
    },
    {
      "name": "Rectangle212_1_0_indices",
      "componentType": 5123,
      "count": 156,
      "min": [
        0
      ],
      "max": [
        95
      ],
      "type": "SCALAR",
      "bufferView": 2,
      "byteOffset": 72
    },
    {
      "name": "Shape004_1_0_positions",
      "componentType": 5126,
      "count": 302,
      "min": [
        -38.430301666259766,
        -0.19140000641345978,
        13.554400444030762
      ],
      "max": [
        -20.045000076293945,
        0.2793000042438507,
        24.984600067138672
      ],
      "type": "VEC3",
      "bufferView": 0,
      "byteOffset": 1440
    },
    {
      "name": "Shape004_1_0_normals",
      "componentType": 5126,
      "count": 302,
      "min": [
        -0.9999945759773254,
        -1,
        -1
      ],
      "max": [
        1,
        1,
        0.9998962879180908
      ],
      "type": "VEC3",
      "bufferView": 1,
      "byteOffset": 1440
    },
    {
      "name": "Shape004_1_0_indices",
      "componentType": 5123,
      "count": 864,
      "min": [
        0
      ],
      "max": [
        301
      ],
      "type": "SCALAR",
      "bufferView": 2,
      "byteOffset": 384
    },
    {
      "name": "Text080_1_0_positions",
      "componentType": 5126,
      "count": 1054,
      "min": [
        -19.880599975585938,
        5.611999988555908,
        -10.220000267028809
      ],
      "max": [
        -18.649200439453125,
        5.769199848175049,
        -9.459500312805176
      ],
      "type": "VEC3",
      "bufferView": 0,
      "byteOffset": 5064
    },
    {
      "name": "Text080_1_0_normals",
      "componentType": 5126,
      "count": 1054,
      "min": [
        -0.9999999403953552,
        -1,
        -1
      ],
      "max": [
        0.9999945759773254,
        1,
        1
      ],
      "type": "VEC3",
      "bufferView": 1,
      "byteOffset": 5064
    },
    {
      "name": "Text080_1_0_indices",
      "componentType": 5123,
      "count": 3084,
      "min": [
        0
      ],
      "max": [
        1053
      ],
      "type": "SCALAR",
      "bufferView": 2,
      "byteOffset": 2112
    },
    {
      "name": "Rectangle289_1_0_positions",
      "componentType": 5126,
      "count": 96,
      "min": [
        -19.993600845336914,
        0.22619999945163727,
        -4.877900123596191
      ],
      "max": [
        -18.52910041809082,
        5.711900234222412,
        -3.5167999267578125
      ],
      "type": "VEC3",
      "bufferView": 0,
      "byteOffset": 17712
    },
    {
      "name": "Rectangle289_1_0_normals",
      "componentType": 5126,
      "count": 96,
      "min": [
        -1,
        -1,
        -1
      ],
      "max": [
        1,
        1,
        1
      ],
      "type": "VEC3",
      "bufferView": 1,
      "byteOffset": 17712
    },
    {
      "name": "Rectangle289_1_0_indices",
      "componentType": 5123,
      "count": 156,
      "min": [
        0
      ],
      "max": [
        95
      ],
      "type": "SCALAR",
      "bufferView": 2,
      "byteOffset": 8280
    },
    {
      "name": "Text081_1_0_positions",
      "componentType": 5126,
      "count": 1664,
      "min": [
        -19.8518009185791,
        5.611999988555908,
        -4.558300018310547
      ],
      "max": [
        -18.67799949645996,
        5.769199848175049,
        -3.7976999282836914
      ],
      "type": "VEC3",
      "bufferView": 0,
      "byteOffset": 18864
    },
    {
      "name": "Text081_1_0_normals",
      "componentType": 5126,
      "count": 1664,
      "min": [
        -1,
        -1,
        -1
      ],
      "max": [
        1,
        1,
        1
      ],
      "type": "VEC3",
      "bufferView": 1,
      "byteOffset": 18864
    },
    {
      "name": "Text081_1_0_indices",
      "componentType": 5123,
      "count": 4920,
      "min": [
        0
      ],
      "max": [
        1663
      ],
      "type": "SCALAR",
      "bufferView": 2,
      "byteOffset": 8592
    },
    {
      "name": "Line1009_1_0_positions",
      "componentType": 5126,
      "count": 24,
      "min": [
        -20.07699966430664,
        -0.19380000233650208,
        -10.701700210571289
      ],
      "max": [
        -18.40239906311035,
        0.2786000072956085,
        -3.390399932861328
      ],
      "type": "VEC3",
      "bufferView": 0,
      "byteOffset": 38832
    },
    {
      "name": "Line1009_1_0_normals",
      "componentType": 5126,
      "count": 24,
      "min": [
        -0.9999998807907104,
        -1,
        -1
      ],
      "max": [
        1,
        1,
        1
      ],
      "type": "VEC3",
      "bufferView": 1,
      "byteOffset": 38832
    },
    {
      "name": "Line1009_1_0_indices",
      "componentType": 5123,
      "count": 36,
      "min": [
        0
      ],
      "max": [
        23
      ],
      "type": "SCALAR",
      "bufferView": 2,
      "byteOffset": 18432
    },
    {
      "name": "Donut044_1_0_positions",
      "componentType": 5126,
      "count": 544,
      "min": [
        -31.271400451660156,
        0.12349999696016312,
        -10.828900337219238
      ],
      "max": [
        -27.30229949951172,
        0.43380001187324524,
        -6.859799861907959
      ],
      "type": "VEC3",
      "bufferView": 0,
      "byteOffset": 39120
    },
    {
      "name": "Donut044_1_0_normals",
      "componentType": 5126,
      "count": 544,
      "min": [
        -1,
        -1,
        -1
      ],
      "max": [
        1,
        1,
        1
      ],
      "type": "VEC3",
      "bufferView": 1,
      "byteOffset": 39120
    },
    {
      "name": "Donut044_1_0_indices",
      "componentType": 5123,
      "count": 1632,
      "min": [
        0
      ],
      "max": [
        543
      ],
      "type": "SCALAR",
      "bufferView": 2,
      "byteOffset": 18504
    },
    {
      "name": "Circle010_1_0_positions",
      "componentType": 5126,
      "count": 112,
      "min": [
        -29.000499725341797,
        0.10970000177621841,
        -9.642800331115723
      ],
      "max": [
        -28.547300338745117,
        0.4345000088214874,
        -9.189599990844727
      ],
      "type": "VEC3",
      "bufferView": 0,
      "byteOffset": 45648
    },
    {
      "name": "Circle010_1_0_normals",
      "componentType": 5126,
      "count": 112,
      "min": [
        -1,
        -1,
        -1
      ],
      "max": [
        1,
        1,
        1
      ],
      "type": "VEC3",
      "bufferView": 1,
      "byteOffset": 45648
    },
    {
      "name": "Circle010_1_0_indices",
      "componentType": 5123,
      "count": 324,
      "min": [
        0
      ],
      "max": [
        111
      ],
      "type": "SCALAR",
      "bufferView": 2,
      "byteOffset": 21768
    },
    {
      "name": "Line1013_1_0_positions",
      "componentType": 5126,
      "count": 280,
      "min": [
        -30.678300857543945,
        0.12319999933242798,
        -8.38949966430664
      ],
      "max": [
        -27.947599411010742,
        0.4334999918937683,
        -7.708099842071533
      ],
      "type": "VEC3",
      "bufferView": 0,
      "byteOffset": 46992
    },
    {
      "name": "Line1013_1_0_normals",
      "componentType": 5126,
      "count": 280,
      "min": [
        -1,
        -1,
        -0.9983513951301575
      ],
      "max": [
        1,
        1,
        1
      ],
      "type": "VEC3",
      "bufferView": 1,
      "byteOffset": 46992
    },
    {
      "name": "Line1013_1_0_indices",
      "componentType": 5123,
      "count": 804,
      "min": [
        0
      ],
      "max": [
        279
      ],
      "type": "SCALAR",
      "bufferView": 2,
      "byteOffset": 22416
    },
    {
      "name": "Line1014_1_0_positions",
      "componentType": 5126,
      "count": 500,
      "min": [
        -30.543500900268555,
        0.12319999933242798,
        -9.87279987335205
      ],
      "max": [
        -28.030899047851562,
        0.421999990940094,
        -8.523099899291992
      ],
      "type": "VEC3",
      "bufferView": 0,
      "byteOffset": 50352
    },
    {
      "name": "Line1014_1_0_normals",
      "componentType": 5126,
      "count": 500,
      "min": [
        -1,
        -1,
        -1
      ],
      "max": [
        1,
        1,
        1
      ],
      "type": "VEC3",
      "bufferView": 1,
      "byteOffset": 50352
    },
    {
      "name": "Line1014_1_0_indices",
      "componentType": 5123,
      "count": 1488,
      "min": [
        0
      ],
      "max": [
        499
      ],
      "type": "SCALAR",
      "bufferView": 2,
      "byteOffset": 24024
    },
    {
      "name": "Text171_1_0_positions",
      "componentType": 5126,
      "count": 5926,
      "min": [
        -33.06809997558594,
        0.15530000627040863,
        -6.4344000816345215
      ],
      "max": [
        -25.55780029296875,
        0.3887999951839447,
        -3.31469988822937
      ],
      "type": "VEC3",
      "bufferView": 0,
      "byteOffset": 56352
    },
    {
      "name": "Text171_1_0_normals",
      "componentType": 5126,
      "count": 5926,
      "min": [
        -1,
        -1,
        -1
      ],
      "max": [
        1,
        1,
        1
      ],
      "type": "VEC3",
      "bufferView": 1,
      "byteOffset": 56352
    },
    {
      "name": "Text171_1_0_indices",
      "componentType": 5123,
      "count": 17088,
      "min": [
        0
      ],
      "max": [
        5925
      ],
      "type": "SCALAR",
      "bufferView": 2,
      "byteOffset": 27000
    },
    {
      "name": "Line1015_1_0_positions",
      "componentType": 5126,
      "count": 24,
      "min": [
        -20.087600708007812,
        0,
        -10.654800415039062
      ],
      "max": [
        -18.43829917907715,
        0.2874000072479248,
        -3.4333999156951904
      ],
      "type": "VEC3",
      "bufferView": 0,
      "byteOffset": 127464
    },
    {
      "name": "Line1015_1_0_normals",
      "componentType": 5126,
      "count": 24,
      "min": [
        -1,
        -1,
        -1
      ],
      "max": [
        1,
        1,
        1
      ],
      "type": "VEC3",
      "bufferView": 1,
      "byteOffset": 127464
    },
    {
      "name": "Line1015_1_0_indices",
      "componentType": 5123,
      "count": 36,
      "min": [
        0
      ],
      "max": [
        23
      ],
      "type": "SCALAR",
      "bufferView": 2,
      "byteOffset": 61176
    },
    {
      "name": "Text172_1_0_positions",
      "componentType": 5126,
      "count": 3882,
      "min": [
        -31.240299224853516,
        0.3828999996185303,
        8.028900146484375
      ],
      "max": [
        -27.27829933166504,
        0.49459999799728394,
        9.368399620056152
      ],
      "type": "VEC3",
      "bufferView": 0,
      "byteOffset": 127752
    },
    {
      "name": "Text172_1_0_normals",
      "componentType": 5126,
      "count": 3882,
      "min": [
        -1,
        -1,
        -1
      ],
      "max": [
        1,
        1,
        1
      ],
      "type": "VEC3",
      "bufferView": 1,
      "byteOffset": 127752
    },
    {
      "name": "Text172_1_0_indices",
      "componentType": 5123,
      "count": 11436,
      "min": [
        0
      ],
      "max": [
        3881
      ],
      "type": "SCALAR",
      "bufferView": 2,
      "byteOffset": 61248
    },
    {
      "name": "WRectangle002_1_0_positions",
      "componentType": 5126,
      "count": 48,
      "min": [
        -32.01729965209961,
        0.3116999864578247,
        7.010700225830078
      ],
      "max": [
        -26.608600616455078,
        0.508899986743927,
        10.479299545288086
      ],
      "type": "VEC3",
      "bufferView": 0,
      "byteOffset": 174336
    },
    {
      "name": "WRectangle002_1_0_normals",
      "componentType": 5126,
      "count": 48,
      "min": [
        -1,
        -1,
        -1
      ],
      "max": [
        1,
        1,
        1
      ],
      "type": "VEC3",
      "bufferView": 1,
      "byteOffset": 174336
    },
    {
      "name": "WRectangle002_1_0_indices",
      "componentType": 5123,
      "count": 96,
      "min": [
        0
      ],
      "max": [
        47
      ],
      "type": "SCALAR",
      "bufferView": 2,
      "byteOffset": 84120
    }
  ],
  "asset": {
    "generator": "obj2gltf",
    "version": "2.0"
  },
  "buffers": [
    {
      "name": "S-1B",
      "byteLength": 434136,
      "uri": "data:application/octet-stream;base64,"
    }
  ],
  "bufferViews": [
    {
      "name": "bufferView_0",
      "buffer": 0,
      "byteLength": 174912,
      "byteOffset": 0,
      "byteStride": 12,
      "target": 34962
    },
    {
      "name": "bufferView_1",
      "buffer": 0,
      "byteLength": 174912,
      "byteOffset": 174912,
      "byteStride": 12,
      "target": 34962
    },
    {
      "name": "bufferView_2",
      "buffer": 0,
      "byteLength": 84312,
      "byteOffset": 349824,
      "target": 34963
    }
  ],
  "materials": [
    {
      "name": "wire_121068000",
      "pbrMetallicRoughness": {
        "baseColorFactor": [
          0.5,
          0.5,
          0.5,
          1
        ],
        "metallicFactor": 0,
        "roughnessFactor": 1
      },
      "emissiveFactor": [
        0,
        0,
        0
      ],
      "alphaMode": "OPAQUE",
      "doubleSided": false
    },
    {
      "name": "wire_021103107",
      "pbrMetallicRoughness": {
        "baseColorFactor": [
          0.5,
          0.5,
          0.5,
          1
        ],
        "metallicFactor": 0,
        "roughnessFactor": 1
      },
      "emissiveFactor": [
        0,
        0,
        0
      ],
      "alphaMode": "OPAQUE",
      "doubleSided": false
    },
    {
      "name": "wire_189189176",
      "pbrMetallicRoughness": {
        "baseColorFactor": [
          0.5,
          0.5,
          0.5,
          1
        ],
        "metallicFactor": 0,
        "roughnessFactor": 1
      },
      "emissiveFactor": [
        0,
        0,
        0
      ],
      "alphaMode": "OPAQUE",
      "doubleSided": false
    },
    {
      "name": "wire_255255255",
      "pbrMetallicRoughness": {
        "baseColorFactor": [
          0.5,
          0.5,
          0.5,
          1
        ],
        "metallicFactor": 0,
        "roughnessFactor": 1
      },
      "emissiveFactor": [
        0,
        0,
        0
      ],
      "alphaMode": "OPAQUE",
      "doubleSided": false
    }
  ],
  "meshes": [
    {
      "name": "Line1006_1",
      "primitives": [
        {
          "attributes": {
            "POSITION": 0,
            "NORMAL": 1
          },
          "indices": 2,
          "material": 0,
          "mode": 4
        }
      ]
    },
    {
      "name": "Rectangle212_1",
      "primitives": [
        {
          "attributes": {
            "POSITION": 3,
            "NORMAL": 4
          },
          "indices": 5,
          "material": 1,
          "mode": 4
        }
      ]
    },
    {
      "name": "Shape004_1",
      "primitives": [
        {
          "attributes": {
            "POSITION": 6,
            "NORMAL": 7
          },
          "indices": 8,
          "material": 2,
          "mode": 4
        }
      ]
    },
    {
      "name": "Text080_1",
      "primitives": [
        {
          "attributes": {
            "POSITION": 9,
            "NORMAL": 10
          },
          "indices": 11,
          "material": 3,
          "mode": 4
        }
      ]
    },
    {
      "name": "Rectangle289_1",
      "primitives": [
        {
          "attributes": {
            "POSITION": 12,
            "NORMAL": 13
          },
          "indices": 14,
          "material": 1,
          "mode": 4
        }
      ]
    },
    {
      "name": "Text081_1",
      "primitives": [
        {
          "attributes": {
            "POSITION": 15,
            "NORMAL": 16
          },
          "indices": 17,
          "material": 3,
          "mode": 4
        }
      ]
    },
    {
      "name": "Line1009_1",
      "primitives": [
        {
          "attributes": {
            "POSITION": 18,
            "NORMAL": 19
          },
          "indices": 20,
          "material": 0,
          "mode": 4
        }
      ]
    },
    {
      "name": "Donut044_1",
      "primitives": [
        {
          "attributes": {
            "POSITION": 21,
            "NORMAL": 22
          },
          "indices": 23,
          "material": 3,
          "mode": 4
        }
      ]
    },
    {
      "name": "Circle010_1",
      "primitives": [
        {
          "attributes": {
            "POSITION": 24,
            "NORMAL": 25
          },
          "indices": 26,
          "material": 3,
          "mode": 4
        }
      ]
    },
    {
      "name": "Line1013_1",
      "primitives": [
        {
          "attributes": {
            "POSITION": 27,
            "NORMAL": 28
          },
          "indices": 29,
          "material": 3,
          "mode": 4
        }
      ]
    },
    {
      "name": "Line1014_1",
      "primitives": [
        {
          "attributes": {
            "POSITION": 30,
            "NORMAL": 31
          },
          "indices": 32,
          "material": 3,
          "mode": 4
        }
      ]
    },
    {
      "name": "Text171_1",
      "primitives": [
        {
          "attributes": {
            "POSITION": 33,
            "NORMAL": 34
          },
          "indices": 35,
          "material": 3,
          "mode": 4
        }
      ]
    },
    {
      "name": "Line1015_1",
      "primitives": [
        {
          "attributes": {
            "POSITION": 36,
            "NORMAL": 37
          },
          "indices": 38,
          "material": 3,
          "mode": 4
        }
      ]
    },
    {
      "name": "Text172_1",
      "primitives": [
        {
          "attributes": {
            "POSITION": 39,
            "NORMAL": 40
          },
          "indices": 41,
          "material": 3,
          "mode": 4
        }
      ]
    },
    {
      "name": "WRectangle002_1",
      "primitives": [
        {
          "attributes": {
            "POSITION": 42,
            "NORMAL": 43
          },
          "indices": 44,
          "material": 3,
          "mode": 4
        }
      ]
    }
  ],
  "nodes": [
    {
      "name": "Line1006",
      "mesh": 0
    },
    {
      "name": "Rectangle212",
      "mesh": 1
    },
    {
      "name": "Shape004",
      "mesh": 2
    },
    {
      "name": "Text080",
      "mesh": 3
    },
    {
      "name": "Rectangle289",
      "mesh": 4
    },
    {
      "name": "Text081",
      "mesh": 5
    },
    {
      "name": "Line1009",
      "mesh": 6
    },
    {
      "name": "Donut044",
      "mesh": 7
    },
    {
      "name": "Circle010",
      "mesh": 8
    },
    {
      "name": "Line1013",
      "mesh": 9
    },
    {
      "name": "Line1014",
      "mesh": 10
    },
    {
      "name": "Text171",
      "mesh": 11
    },
    {
      "name": "Line1015",
      "mesh": 12
    },
    {
      "name": "Text172",
      "mesh": 13
    },
    {
      "name": "WRectangle002",
      "mesh": 14
    }
  ],
  "scene": 0,
  "scenes": [
    {
      "nodes": [
        0,
        1,
        2,
        3,
        4,
        5,
        6,
        7,
        8,
        9,
        10,
        11,
        12,
        13,
        14
      ]
    }
  ]
}
