{
  "accessors": [
    {
      "name": "Line1007_1_0_positions",
      "componentType": 5126,
      "count": 24,
      "min": [
        -12.796899795532227,
        -0.19140000641345978,
        -27.704299926757812
      ],
      "max": [
        5.738999843597412,
        0.2793000042438507,
        13.560600280761719
      ],
      "type": "VEC3",
      "bufferView": 0,
      "byteOffset": 0
    },
    {
      "name": "Line1007_1_0_normals",
      "componentType": 5126,
      "count": 24,
      "min": [
        -1,
        -1,
        -1
      ],
      "max": [
        1,
        1,
        1
      ],
      "type": "VEC3",
      "bufferView": 1,
      "byteOffset": 0
    },
    {
      "name": "Line1007_1_0_indices",
      "componentType": 5123,
      "count": 36,
      "min": [
        0
      ],
      "max": [
        23
      ],
      "type": "SCALAR",
      "bufferView": 2,
      "byteOffset": 0
    },
    {
      "name": "Rectangle290_1_0_positions",
      "componentType": 5126,
      "count": 96,
      "min": [
        5.79040002822876,
        0.22619999945163727,
        -10.53969955444336
      ],
      "max": [
        7.254899978637695,
        5.711900234222412,
        -9.178600311279297
      ],
      "type": "VEC3",
      "bufferView": 0,
      "byteOffset": 288
    },
    {
      "name": "Rectangle290_1_0_normals",
      "componentType": 5126,
      "count": 96,
      "min": [
        -1,
        -1,
        -1
      ],
      "max": [
        1,
        1,
        1
      ],
      "type": "VEC3",
      "bufferView": 1,
      "byteOffset": 288
    },
    {
      "name": "Rectangle290_1_0_indices",
      "componentType": 5123,
      "count": 156,
      "min": [
        0
      ],
      "max": [
        95
      ],
      "type": "SCALAR",
      "bufferView": 2,
      "byteOffset": 72
    },
    {
      "name": "Rectangle362_1_0_positions",
      "componentType": 5126,
      "count": 96,
      "min": [
        5.79040002822876,
        0.22619999945163727,
        -4.877900123596191
      ],
      "max": [
        7.254899978637695,
        5.711900234222412,
        -3.5167999267578125
      ],
      "type": "VEC3",
      "bufferView": 0,
      "byteOffset": 1440
    },
    {
      "name": "Rectangle362_1_0_normals",
      "componentType": 5126,
      "count": 96,
      "min": [
        -1,
        -1,
        -1
      ],
      "max": [
        1,
        1,
        1
      ],
      "type": "VEC3",
      "bufferView": 1,
      "byteOffset": 1440
    },
    {
      "name": "Rectangle362_1_0_indices",
      "componentType": 5123,
      "count": 156,
      "min": [
        0
      ],
      "max": [
        95
      ],
      "type": "SCALAR",
      "bufferView": 2,
      "byteOffset": 384
    },
    {
      "name": "Shape005_1_0_positions",
      "componentType": 5126,
      "count": 302,
      "min": [
        -12.646300315856934,
        -0.19140000641345978,
        13.554400444030762
      ],
      "max": [
        5.738999843597412,
        0.2793000042438507,
        24.984600067138672
      ],
      "type": "VEC3",
      "bufferView": 0,
      "byteOffset": 2592
    },
    {
      "name": "Shape005_1_0_normals",
      "componentType": 5126,
      "count": 302,
      "min": [
        -0.9999945759773254,
        -1,
        -1
      ],
      "max": [
        1,
        1,
        0.9998962879180908
      ],
      "type": "VEC3",
      "bufferView": 1,
      "byteOffset": 2592
    },
    {
      "name": "Shape005_1_0_indices",
      "componentType": 5123,
      "count": 864,
      "min": [
        0
      ],
      "max": [
        301
      ],
      "type": "SCALAR",
      "bufferView": 2,
      "byteOffset": 696
    },
    {
      "name": "Line1010_1_0_positions",
      "componentType": 5126,
      "count": 24,
      "min": [
        5.6956000328063965,
        -0.19380000233650208,
        -10.701700210571289
      ],
      "max": [
        7.370200157165527,
        0.2786000072956085,
        -3.390399932861328
      ],
      "type": "VEC3",
      "bufferView": 0,
      "byteOffset": 6216
    },
    {
      "name": "Line1010_1_0_normals",
      "componentType": 5126,
      "count": 24,
      "min": [
        -0.9999998807907104,
        -1,
        -1
      ],
      "max": [
        1,
        1,
        1
      ],
      "type": "VEC3",
      "bufferView": 1,
      "byteOffset": 6216
    },
    {
      "name": "Line1010_1_0_indices",
      "componentType": 5123,
      "count": 36,
      "min": [
        0
      ],
      "max": [
        23
      ],
      "type": "SCALAR",
      "bufferView": 2,
      "byteOffset": 2424
    },
    {
      "name": "Text082_1_0_positions",
      "componentType": 5126,
      "count": 1054,
      "min": [
        5.927800178527832,
        5.611999988555908,
        -10.220000267028809
      ],
      "max": [
        7.159200191497803,
        5.769199848175049,
        -9.459500312805176
      ],
      "type": "VEC3",
      "bufferView": 0,
      "byteOffset": 6504
    },
    {
      "name": "Text082_1_0_normals",
      "componentType": 5126,
      "count": 1054,
      "min": [
        -0.9999999403953552,
        -1,
        -1
      ],
      "max": [
        0.9999945759773254,
        1,
        1
      ],
      "type": "VEC3",
      "bufferView": 1,
      "byteOffset": 6504
    },
    {
      "name": "Text082_1_0_indices",
      "componentType": 5123,
      "count": 3084,
      "min": [
        0
      ],
      "max": [
        1053
      ],
      "type": "SCALAR",
      "bufferView": 2,
      "byteOffset": 2496
    },
    {
      "name": "Text083_1_0_positions",
      "componentType": 5126,
      "count": 1664,
      "min": [
        5.956600189208984,
        5.611999988555908,
        -4.558300018310547
      ],
      "max": [
        7.13040018081665,
        5.769199848175049,
        -3.7976999282836914
      ],
      "type": "VEC3",
      "bufferView": 0,
      "byteOffset": 19152
    },
    {
      "name": "Text083_1_0_normals",
      "componentType": 5126,
      "count": 1664,
      "min": [
        -1,
        -1,
        -1
      ],
      "max": [
        1,
        1,
        1
      ],
      "type": "VEC3",
      "bufferView": 1,
      "byteOffset": 19152
    },
    {
      "name": "Text083_1_0_indices",
      "componentType": 5123,
      "count": 4920,
      "min": [
        0
      ],
      "max": [
        1663
      ],
      "type": "SCALAR",
      "bufferView": 2,
      "byteOffset": 8664
    },
    {
      "name": "Line1016_1_0_positions",
      "componentType": 5126,
      "count": 24,
      "min": [
        5.683300018310547,
        0,
        -10.654800415039062
      ],
      "max": [
        7.332600116729736,
        0.2874000072479248,
        -3.4333999156951904
      ],
      "type": "VEC3",
      "bufferView": 0,
      "byteOffset": 39120
    },
    {
      "name": "Line1016_1_0_normals",
      "componentType": 5126,
      "count": 24,
      "min": [
        -1,
        -1,
        -1
      ],
      "max": [
        1,
        1,
        1
      ],
      "type": "VEC3",
      "bufferView": 1,
      "byteOffset": 39120
    },
    {
      "name": "Line1016_1_0_indices",
      "componentType": 5123,
      "count": 36,
      "min": [
        0
      ],
      "max": [
        23
      ],
      "type": "SCALAR",
      "bufferView": 2,
      "byteOffset": 18504
    },
    {
      "name": "Donut045_1_0_positions",
      "componentType": 5126,
      "count": 544,
      "min": [
        -5.487400054931641,
        0.12349999696016312,
        -10.828900337219238
      ],
      "max": [
        -1.5183000564575195,
        0.43380001187324524,
        -6.859799861907959
      ],
      "type": "VEC3",
      "bufferView": 0,
      "byteOffset": 39408
    },
    {
      "name": "Donut045_1_0_normals",
      "componentType": 5126,
      "count": 544,
      "min": [
        -1,
        -1,
        -1
      ],
      "max": [
        1,
        1,
        1
      ],
      "type": "VEC3",
      "bufferView": 1,
      "byteOffset": 39408
    },
    {
      "name": "Donut045_1_0_indices",
      "componentType": 5123,
      "count": 1632,
      "min": [
        0
      ],
      "max": [
        543
      ],
      "type": "SCALAR",
      "bufferView": 2,
      "byteOffset": 18576
    },
    {
      "name": "Circle011_1_0_positions",
      "componentType": 5126,
      "count": 112,
      "min": [
        -3.2165000438690186,
        0.10970000177621841,
        -9.642800331115723
      ],
      "max": [
        -2.7632999420166016,
        0.4345000088214874,
        -9.189599990844727
      ],
      "type": "VEC3",
      "bufferView": 0,
      "byteOffset": 45936
    },
    {
      "name": "Circle011_1_0_normals",
      "componentType": 5126,
      "count": 112,
      "min": [
        -1,
        -1,
        -1
      ],
      "max": [
        1,
        1,
        1
      ],
      "type": "VEC3",
      "bufferView": 1,
      "byteOffset": 45936
    },
    {
      "name": "Circle011_1_0_indices",
      "componentType": 5123,
      "count": 324,
      "min": [
        0
      ],
      "max": [
        111
      ],
      "type": "SCALAR",
      "bufferView": 2,
      "byteOffset": 21840
    },
    {
      "name": "Line1017_1_0_positions",
      "componentType": 5126,
      "count": 280,
      "min": [
        -4.8942999839782715,
        0.12319999933242798,
        -8.38949966430664
      ],
      "max": [
        -2.1635000705718994,
        0.4334999918937683,
        -7.708099842071533
      ],
      "type": "VEC3",
      "bufferView": 0,
      "byteOffset": 47280
    },
    {
      "name": "Line1017_1_0_normals",
      "componentType": 5126,
      "count": 280,
      "min": [
        -1,
        -1,
        -0.9983513951301575
      ],
      "max": [
        1,
        1,
        1
      ],
      "type": "VEC3",
      "bufferView": 1,
      "byteOffset": 47280
    },
    {
      "name": "Line1017_1_0_indices",
      "componentType": 5123,
      "count": 804,
      "min": [
        0
      ],
      "max": [
        279
      ],
      "type": "SCALAR",
      "bufferView": 2,
      "byteOffset": 22488
    },
    {
      "name": "Line1018_1_0_positions",
      "componentType": 5126,
      "count": 500,
      "min": [
        -4.759500026702881,
        0.12319999933242798,
        -9.87279987335205
      ],
      "max": [
        -2.246799945831299,
        0.421999990940094,
        -8.523099899291992
      ],
      "type": "VEC3",
      "bufferView": 0,
      "byteOffset": 50640
    },
    {
      "name": "Line1018_1_0_normals",
      "componentType": 5126,
      "count": 500,
      "min": [
        -1,
        -1,
        -1
      ],
      "max": [
        1,
        1,
        1
      ],
      "type": "VEC3",
      "bufferView": 1,
      "byteOffset": 50640
    },
    {
      "name": "Line1018_1_0_indices",
      "componentType": 5123,
      "count": 1488,
      "min": [
        0
      ],
      "max": [
        499
      ],
      "type": "SCALAR",
      "bufferView": 2,
      "byteOffset": 24096
    },
    {
      "name": "Text173_1_0_positions",
      "componentType": 5126,
      "count": 5926,
      "min": [
        -7.28410005569458,
        0.15530000627040863,
        -6.4344000816345215
      ],
      "max": [
        0.22630000114440918,
        0.3887999951839447,
        -3.31469988822937
      ],
      "type": "VEC3",
      "bufferView": 0,
      "byteOffset": 56640
    },
    {
      "name": "Text173_1_0_normals",
      "componentType": 5126,
      "count": 5926,
      "min": [
        -1,
        -1,
        -1
      ],
      "max": [
        1,
        1,
        1
      ],
      "type": "VEC3",
      "bufferView": 1,
      "byteOffset": 56640
    },
    {
      "name": "Text173_1_0_indices",
      "componentType": 5123,
      "count": 17088,
      "min": [
        0
      ],
      "max": [
        5925
      ],
      "type": "SCALAR",
      "bufferView": 2,
      "byteOffset": 27072
    },
    {
      "name": "Text174_1_0_positions",
      "componentType": 5126,
      "count": 4828,
      "min": [
        -5.430500030517578,
        0.3828999996185303,
        8.028900146484375
      ],
      "max": [
        -1.468500018119812,
        0.49459999799728394,
        9.368399620056152
      ],
      "type": "VEC3",
      "bufferView": 0,
      "byteOffset": 127752
    },
    {
      "name": "Text174_1_0_normals",
      "componentType": 5126,
      "count": 4828,
      "min": [
        -1,
        -1,
        -1
      ],
      "max": [
        1,
        1,
        1
      ],
      "type": "VEC3",
      "bufferView": 1,
      "byteOffset": 127752
    },
    {
      "name": "Text174_1_0_indices",
      "componentType": 5123,
      "count": 14280,
      "min": [
        0
      ],
      "max": [
        4827
      ],
      "type": "SCALAR",
      "bufferView": 2,
      "byteOffset": 61248
    },
    {
      "name": "WRectangle003_1_0_positions",
      "componentType": 5126,
      "count": 48,
      "min": [
        -6.207499980926514,
        0.3116999864578247,
        7.010700225830078
      ],
      "max": [
        -0.798799991607666,
        0.508899986743927,
        10.479299545288086
      ],
      "type": "VEC3",
      "bufferView": 0,
      "byteOffset": 185688
    },
    {
      "name": "WRectangle003_1_0_normals",
      "componentType": 5126,
      "count": 48,
      "min": [
        -1,
        -1,
        -1
      ],
      "max": [
        1,
        1,
        1
      ],
      "type": "VEC3",
      "bufferView": 1,
      "byteOffset": 185688
    },
    {
      "name": "WRectangle003_1_0_indices",
      "componentType": 5123,
      "count": 96,
      "min": [
        0
      ],
      "max": [
        47
      ],
      "type": "SCALAR",
      "bufferView": 2,
      "byteOffset": 89808
    }
  ],
  "asset": {
    "generator": "obj2gltf",
    "version": "2.0"
  },
  "buffers": [
    {
      "name": "s-2B",
      "byteLength": 462528,
      "uri": "data:application/octet-stream;base64,"
    }
  ],
  "bufferViews": [
    {
      "name": "bufferView_0",
      "buffer": 0,
      "byteLength": 186264,
      "byteOffset": 0,
      "byteStride": 12,
      "target": 34962
    },
    {
      "name": "bufferView_1",
      "buffer": 0,
      "byteLength": 186264,
      "byteOffset": 186264,
      "byteStride": 12,
      "target": 34962
    },
    {
      "name": "bufferView_2",
      "buffer": 0,
      "byteLength": 90000,
      "byteOffset": 372528,
      "target": 34963
    }
  ],
  "materials": [
    {
      "name": "wire_121068000",
      "pbrMetallicRoughness": {
        "baseColorFactor": [
          0.4745,
          0.2667,
          0,
          1
        ],
        "metallicFactor": 0,
        "roughnessFactor": 0.968
      },
      "emissiveFactor": [
        0,
        0,
        0
      ],
      "alphaMode": "OPAQUE",
      "doubleSided": false
    },
    {
      "name": "wire_021103107",
      "pbrMetallicRoughness": {
        "baseColorFactor": [
          0.0824,
          0.4039,
          0.4196,
          1
        ],
        "metallicFactor": 0,
        "roughnessFactor": 0.968
      },
      "emissiveFactor": [
        0,
        0,
        0
      ],
      "alphaMode": "OPAQUE",
      "doubleSided": false
    },
    {
      "name": "wire_189189176",
      "pbrMetallicRoughness": {
        "baseColorFactor": [
          0.7412,
          0.7412,
          0.6902,
          1
        ],
        "metallicFactor": 0,
        "roughnessFactor": 0.968
      },
      "emissiveFactor": [
        0,
        0,
        0
      ],
      "alphaMode": "OPAQUE",
      "doubleSided": false
    },
    {
      "name": "wire_255255255",
      "pbrMetallicRoughness": {
        "baseColorFactor": [
          1,
          1,
          1,
          1
        ],
        "metallicFactor": 0,
        "roughnessFactor": 0.968
      },
      "emissiveFactor": [
        0,
        0,
        0
      ],
      "alphaMode": "OPAQUE",
      "doubleSided": false
    }
  ],
  "meshes": [
    {
      "name": "Line1007_1",
      "primitives": [
        {
          "attributes": {
            "POSITION": 0,
            "NORMAL": 1
          },
          "indices": 2,
          "material": 0,
          "mode": 4
        }
      ]
    },
    {
      "name": "Rectangle290_1",
      "primitives": [
        {
          "attributes": {
            "POSITION": 3,
            "NORMAL": 4
          },
          "indices": 5,
          "material": 1,
          "mode": 4
        }
      ]
    },
    {
      "name": "Rectangle362_1",
      "primitives": [
        {
          "attributes": {
            "POSITION": 6,
            "NORMAL": 7
          },
          "indices": 8,
          "material": 1,
          "mode": 4
        }
      ]
    },
    {
      "name": "Shape005_1",
      "primitives": [
        {
          "attributes": {
            "POSITION": 9,
            "NORMAL": 10
          },
          "indices": 11,
          "material": 2,
          "mode": 4
        }
      ]
    },
    {
      "name": "Line1010_1",
      "primitives": [
        {
          "attributes": {
            "POSITION": 12,
            "NORMAL": 13
          },
          "indices": 14,
          "material": 0,
          "mode": 4
        }
      ]
    },
    {
      "name": "Text082_1",
      "primitives": [
        {
          "attributes": {
            "POSITION": 15,
            "NORMAL": 16
          },
          "indices": 17,
          "material": 3,
          "mode": 4
        }
      ]
    },
    {
      "name": "Text083_1",
      "primitives": [
        {
          "attributes": {
            "POSITION": 18,
            "NORMAL": 19
          },
          "indices": 20,
          "material": 3,
          "mode": 4
        }
      ]
    },
    {
      "name": "Line1016_1",
      "primitives": [
        {
          "attributes": {
            "POSITION": 21,
            "NORMAL": 22
          },
          "indices": 23,
          "material": 3,
          "mode": 4
        }
      ]
    },
    {
      "name": "Donut045_1",
      "primitives": [
        {
          "attributes": {
            "POSITION": 24,
            "NORMAL": 25
          },
          "indices": 26,
          "material": 3,
          "mode": 4
        }
      ]
    },
    {
      "name": "Circle011_1",
      "primitives": [
        {
          "attributes": {
            "POSITION": 27,
            "NORMAL": 28
          },
          "indices": 29,
          "material": 3,
          "mode": 4
        }
      ]
    },
    {
      "name": "Line1017_1",
      "primitives": [
        {
          "attributes": {
            "POSITION": 30,
            "NORMAL": 31
          },
          "indices": 32,
          "material": 3,
          "mode": 4
        }
      ]
    },
    {
      "name": "Line1018_1",
      "primitives": [
        {
          "attributes": {
            "POSITION": 33,
            "NORMAL": 34
          },
          "indices": 35,
          "material": 3,
          "mode": 4
        }
      ]
    },
    {
      "name": "Text173_1",
      "primitives": [
        {
          "attributes": {
            "POSITION": 36,
            "NORMAL": 37
          },
          "indices": 38,
          "material": 3,
          "mode": 4
        }
      ]
    },
    {
      "name": "Text174_1",
      "primitives": [
        {
          "attributes": {
            "POSITION": 39,
            "NORMAL": 40
          },
          "indices": 41,
          "material": 3,
          "mode": 4
        }
      ]
    },
    {
      "name": "WRectangle003_1",
      "primitives": [
        {
          "attributes": {
            "POSITION": 42,
            "NORMAL": 43
          },
          "indices": 44,
          "material": 3,
          "mode": 4
        }
      ]
    }
  ],
  "nodes": [
    {
      "name": "Line1007",
      "mesh": 0
    },
    {
      "name": "Rectangle290",
      "mesh": 1
    },
    {
      "name": "Rectangle362",
      "mesh": 2
    },
    {
      "name": "Shape005",
      "mesh": 3
    },
    {
      "name": "Line1010",
      "mesh": 4
    },
    {
      "name": "Text082",
      "mesh": 5
    },
    {
      "name": "Text083",
      "mesh": 6
    },
    {
      "name": "Line1016",
      "mesh": 7
    },
    {
      "name": "Donut045",
      "mesh": 8
    },
    {
      "name": "Circle011",
      "mesh": 9
    },
    {
      "name": "Line1017",
      "mesh": 10
    },
    {
      "name": "Line1018",
      "mesh": 11
    },
    {
      "name": "Text173",
      "mesh": 12
    },
    {
      "name": "Text174",
      "mesh": 13
    },
    {
      "name": "WRectangle003",
      "mesh": 14
    }
  ],
  "scene": 0,
  "scenes": [
    {
      "nodes": [
        0,
        1,
        2,
        3,
        4,
        5,
        6,
        7,
        8,
        9,
        10,
        11,
        12,
        13,
        14
      ]
    }
  ]
}
