{
  "accessors": [
    {
      "name": "Line1008_1_0_positions",
      "componentType": 5126,
      "count": 24,
      "min": [
        13.35260009765625,
        -0.19140000641345978,
        -27.704299926757812
      ],
      "max": [
        31.888500213623047,
        0.2793000042438507,
        13.560600280761719
      ],
      "type": "VEC3",
      "bufferView": 0,
      "byteOffset": 0
    },
    {
      "name": "Line1008_1_0_normals",
      "componentType": 5126,
      "count": 24,
      "min": [
        -1,
        -1,
        -1
      ],
      "max": [
        1,
        1,
        1
      ],
      "type": "VEC3",
      "bufferView": 1,
      "byteOffset": 0
    },
    {
      "name": "Line1008_1_0_indices",
      "componentType": 5123,
      "count": 36,
      "min": [
        0
      ],
      "max": [
        23
      ],
      "type": "SCALAR",
      "bufferView": 2,
      "byteOffset": 0
    },
    {
      "name": "Rectangle363_1_0_positions",
      "componentType": 5126,
      "count": 96,
      "min": [
        31.939899444580078,
        0.22619999945163727,
        -10.53969955444336
      ],
      "max": [
        33.40439987182617,
        5.711900234222412,
        -9.178600311279297
      ],
      "type": "VEC3",
      "bufferView": 0,
      "byteOffset": 288
    },
    {
      "name": "Rectangle363_1_0_normals",
      "componentType": 5126,
      "count": 96,
      "min": [
        -1,
        -1,
        -1
      ],
      "max": [
        1,
        1,
        1
      ],
      "type": "VEC3",
      "bufferView": 1,
      "byteOffset": 288
    },
    {
      "name": "Rectangle363_1_0_indices",
      "componentType": 5123,
      "count": 156,
      "min": [
        0
      ],
      "max": [
        95
      ],
      "type": "SCALAR",
      "bufferView": 2,
      "byteOffset": 72
    },
    {
      "name": "Rectangle435_1_0_positions",
      "componentType": 5126,
      "count": 96,
      "min": [
        31.939899444580078,
        0.22619999945163727,
        -4.877900123596191
      ],
      "max": [
        33.40439987182617,
        5.711900234222412,
        -3.5167999267578125
      ],
      "type": "VEC3",
      "bufferView": 0,
      "byteOffset": 1440
    },
    {
      "name": "Rectangle435_1_0_normals",
      "componentType": 5126,
      "count": 96,
      "min": [
        -1,
        -1,
        -1
      ],
      "max": [
        1,
        1,
        1
      ],
      "type": "VEC3",
      "bufferView": 1,
      "byteOffset": 1440
    },
    {
      "name": "Rectangle435_1_0_indices",
      "componentType": 5123,
      "count": 156,
      "min": [
        0
      ],
      "max": [
        95
      ],
      "type": "SCALAR",
      "bufferView": 2,
      "byteOffset": 384
    },
    {
      "name": "Shape006_1_0_positions",
      "componentType": 5126,
      "count": 302,
      "min": [
        13.503199577331543,
        -0.19140000641345978,
        13.554400444030762
      ],
      "max": [
        31.888500213623047,
        0.2793000042438507,
        24.984600067138672
      ],
      "type": "VEC3",
      "bufferView": 0,
      "byteOffset": 2592
    },
    {
      "name": "Shape006_1_0_normals",
      "componentType": 5126,
      "count": 302,
      "min": [
        -0.9999945759773254,
        -1,
        -1
      ],
      "max": [
        1,
        1,
        0.9998962879180908
      ],
      "type": "VEC3",
      "bufferView": 1,
      "byteOffset": 2592
    },
    {
      "name": "Shape006_1_0_indices",
      "componentType": 5123,
      "count": 864,
      "min": [
        0
      ],
      "max": [
        301
      ],
      "type": "SCALAR",
      "bufferView": 2,
      "byteOffset": 696
    },
    {
      "name": "Line1011_1_0_positions",
      "componentType": 5126,
      "count": 24,
      "min": [
        31.83769989013672,
        -0.19380000233650208,
        -10.701700210571289
      ],
      "max": [
        33.51240158081055,
        0.2786000072956085,
        -3.390399932861328
      ],
      "type": "VEC3",
      "bufferView": 0,
      "byteOffset": 6216
    },
    {
      "name": "Line1011_1_0_normals",
      "componentType": 5126,
      "count": 24,
      "min": [
        -0.9999998807907104,
        -1,
        -1
      ],
      "max": [
        1,
        1,
        1
      ],
      "type": "VEC3",
      "bufferView": 1,
      "byteOffset": 6216
    },
    {
      "name": "Line1011_1_0_indices",
      "componentType": 5123,
      "count": 36,
      "min": [
        0
      ],
      "max": [
        23
      ],
      "type": "SCALAR",
      "bufferView": 2,
      "byteOffset": 2424
    },
    {
      "name": "Text084_1_0_positions",
      "componentType": 5126,
      "count": 1054,
      "min": [
        32.10219955444336,
        5.611999988555908,
        -10.220000267028809
      ],
      "max": [
        33.33359909057617,
        5.769199848175049,
        -9.459500312805176
      ],
      "type": "VEC3",
      "bufferView": 0,
      "byteOffset": 6504
    },
    {
      "name": "Text084_1_0_normals",
      "componentType": 5126,
      "count": 1054,
      "min": [
        -0.9999999403953552,
        -1,
        -1
      ],
      "max": [
        0.9999945759773254,
        1,
        1
      ],
      "type": "VEC3",
      "bufferView": 1,
      "byteOffset": 6504
    },
    {
      "name": "Text084_1_0_indices",
      "componentType": 5123,
      "count": 3084,
      "min": [
        0
      ],
      "max": [
        1053
      ],
      "type": "SCALAR",
      "bufferView": 2,
      "byteOffset": 2496
    },
    {
      "name": "Text085_1_0_positions",
      "componentType": 5126,
      "count": 1664,
      "min": [
        32.13100051879883,
        5.611999988555908,
        -4.558300018310547
      ],
      "max": [
        33.3047981262207,
        5.769199848175049,
        -3.7976999282836914
      ],
      "type": "VEC3",
      "bufferView": 0,
      "byteOffset": 19152
    },
    {
      "name": "Text085_1_0_normals",
      "componentType": 5126,
      "count": 1664,
      "min": [
        -1,
        -1,
        -1
      ],
      "max": [
        1,
        1,
        1
      ],
      "type": "VEC3",
      "bufferView": 1,
      "byteOffset": 19152
    },
    {
      "name": "Text085_1_0_indices",
      "componentType": 5123,
      "count": 4920,
      "min": [
        0
      ],
      "max": [
        1663
      ],
      "type": "SCALAR",
      "bufferView": 2,
      "byteOffset": 8664
    },
    {
      "name": "Line1019_1_0_positions",
      "componentType": 5126,
      "count": 24,
      "min": [
        31.8257999420166,
        0,
        -10.654800415039062
      ],
      "max": [
        33.475101470947266,
        0.2874000072479248,
        -3.4333999156951904
      ],
      "type": "VEC3",
      "bufferView": 0,
      "byteOffset": 39120
    },
    {
      "name": "Line1019_1_0_normals",
      "componentType": 5126,
      "count": 24,
      "min": [
        -1,
        -1,
        -1
      ],
      "max": [
        1,
        1,
        1
      ],
      "type": "VEC3",
      "bufferView": 1,
      "byteOffset": 39120
    },
    {
      "name": "Line1019_1_0_indices",
      "componentType": 5123,
      "count": 36,
      "min": [
        0
      ],
      "max": [
        23
      ],
      "type": "SCALAR",
      "bufferView": 2,
      "byteOffset": 18504
    },
    {
      "name": "Donut046_1_0_positions",
      "componentType": 5126,
      "count": 544,
      "min": [
        20.662099838256836,
        0.12349999696016312,
        -10.828900337219238
      ],
      "max": [
        24.631200790405273,
        0.43380001187324524,
        -6.859799861907959
      ],
      "type": "VEC3",
      "bufferView": 0,
      "byteOffset": 39408
    },
    {
      "name": "Donut046_1_0_normals",
      "componentType": 5126,
      "count": 544,
      "min": [
        -1,
        -1,
        -1
      ],
      "max": [
        1,
        1,
        1
      ],
      "type": "VEC3",
      "bufferView": 1,
      "byteOffset": 39408
    },
    {
      "name": "Donut046_1_0_indices",
      "componentType": 5123,
      "count": 1632,
      "min": [
        0
      ],
      "max": [
        543
      ],
      "type": "SCALAR",
      "bufferView": 2,
      "byteOffset": 18576
    },
    {
      "name": "Circle012_1_0_positions",
      "componentType": 5126,
      "count": 112,
      "min": [
        22.933000564575195,
        0.10970000177621841,
        -9.642800331115723
      ],
      "max": [
        23.386199951171875,
        0.4345000088214874,
        -9.189599990844727
      ],
      "type": "VEC3",
      "bufferView": 0,
      "byteOffset": 45936
    },
    {
      "name": "Circle012_1_0_normals",
      "componentType": 5126,
      "count": 112,
      "min": [
        -1,
        -1,
        -1
      ],
      "max": [
        1,
        1,
        1
      ],
      "type": "VEC3",
      "bufferView": 1,
      "byteOffset": 45936
    },
    {
      "name": "Circle012_1_0_indices",
      "componentType": 5123,
      "count": 324,
      "min": [
        0
      ],
      "max": [
        111
      ],
      "type": "SCALAR",
      "bufferView": 2,
      "byteOffset": 21840
    },
    {
      "name": "Line1020_1_0_positions",
      "componentType": 5126,
      "count": 280,
      "min": [
        21.255199432373047,
        0.12319999933242798,
        -8.38949966430664
      ],
      "max": [
        23.986000061035156,
        0.4334999918937683,
        -7.708099842071533
      ],
      "type": "VEC3",
      "bufferView": 0,
      "byteOffset": 47280
    },
    {
      "name": "Line1020_1_0_normals",
      "componentType": 5126,
      "count": 280,
      "min": [
        -1,
        -1,
        -0.9983513951301575
      ],
      "max": [
        1,
        1,
        1
      ],
      "type": "VEC3",
      "bufferView": 1,
      "byteOffset": 47280
    },
    {
      "name": "Line1020_1_0_indices",
      "componentType": 5123,
      "count": 804,
      "min": [
        0
      ],
      "max": [
        279
      ],
      "type": "SCALAR",
      "bufferView": 2,
      "byteOffset": 22488
    },
    {
      "name": "Line1021_1_0_positions",
      "componentType": 5126,
      "count": 500,
      "min": [
        21.389999389648438,
        0.12319999933242798,
        -9.87279987335205
      ],
      "max": [
        23.902599334716797,
        0.421999990940094,
        -8.523099899291992
      ],
      "type": "VEC3",
      "bufferView": 0,
      "byteOffset": 50640
    },
    {
      "name": "Line1021_1_0_normals",
      "componentType": 5126,
      "count": 500,
      "min": [
        -1,
        -1,
        -1
      ],
      "max": [
        1,
        1,
        1
      ],
      "type": "VEC3",
      "bufferView": 1,
      "byteOffset": 50640
    },
    {
      "name": "Line1021_1_0_indices",
      "componentType": 5123,
      "count": 1488,
      "min": [
        0
      ],
      "max": [
        499
      ],
      "type": "SCALAR",
      "bufferView": 2,
      "byteOffset": 24096
    },
    {
      "name": "Text175_1_0_positions",
      "componentType": 5126,
      "count": 5926,
      "min": [
        18.865400314331055,
        0.15530000627040863,
        -6.4344000816345215
      ],
      "max": [
        26.37579917907715,
        0.3887999951839447,
        -3.31469988822937
      ],
      "type": "VEC3",
      "bufferView": 0,
      "byteOffset": 56640
    },
    {
      "name": "Text175_1_0_normals",
      "componentType": 5126,
      "count": 5926,
      "min": [
        -1,
        -1,
        -1
      ],
      "max": [
        1,
        1,
        1
      ],
      "type": "VEC3",
      "bufferView": 1,
      "byteOffset": 56640
    },
    {
      "name": "Text175_1_0_indices",
      "componentType": 5123,
      "count": 17088,
      "min": [
        0
      ],
      "max": [
        5925
      ],
      "type": "SCALAR",
      "bufferView": 2,
      "byteOffset": 27072
    },
    {
      "name": "Text176_1_0_positions",
      "componentType": 5126,
      "count": 5370,
      "min": [
        20.7189998626709,
        0.3828999996185303,
        8.028900146484375
      ],
      "max": [
        24.680999755859375,
        0.49459999799728394,
        9.368399620056152
      ],
      "type": "VEC3",
      "bufferView": 0,
      "byteOffset": 127752
    },
    {
      "name": "Text176_1_0_normals",
      "componentType": 5126,
      "count": 5370,
      "min": [
        -1,
        -1,
        -1
      ],
      "max": [
        1,
        1,
        1
      ],
      "type": "VEC3",
      "bufferView": 1,
      "byteOffset": 127752
    },
    {
      "name": "Text176_1_0_indices",
      "componentType": 5123,
      "count": 15900,
      "min": [
        0
      ],
      "max": [
        5369
      ],
      "type": "SCALAR",
      "bufferView": 2,
      "byteOffset": 61248
    },
    {
      "name": "WRectangle004_1_0_positions",
      "componentType": 5126,
      "count": 48,
      "min": [
        19.941999435424805,
        0.3116999864578247,
        7.010700225830078
      ],
      "max": [
        25.35070037841797,
        0.508899986743927,
        10.479299545288086
      ],
      "type": "VEC3",
      "bufferView": 0,
      "byteOffset": 192192
    },
    {
      "name": "WRectangle004_1_0_normals",
      "componentType": 5126,
      "count": 48,
      "min": [
        -1,
        -1,
        -1
      ],
      "max": [
        1,
        1,
        1
      ],
      "type": "VEC3",
      "bufferView": 1,
      "byteOffset": 192192
    },
    {
      "name": "WRectangle004_1_0_indices",
      "componentType": 5123,
      "count": 96,
      "min": [
        0
      ],
      "max": [
        47
      ],
      "type": "SCALAR",
      "bufferView": 2,
      "byteOffset": 93048
    }
  ],
  "asset": {
    "generator": "obj2gltf",
    "version": "2.0"
  },
  "buffers": [
    {
      "name": "S-3B",
      "byteLength": 478776,
      "uri": "data:application/octet-stream;base64,"
    }
  ],
  "bufferViews": [
    {
      "name": "bufferView_0",
      "buffer": 0,
      "byteLength": 192768,
      "byteOffset": 0,
      "byteStride": 12,
      "target": 34962
    },
    {
      "name": "bufferView_1",
      "buffer": 0,
      "byteLength": 192768,
      "byteOffset": 192768,
      "byteStride": 12,
      "target": 34962
    },
    {
      "name": "bufferView_2",
      "buffer": 0,
      "byteLength": 93240,
      "byteOffset": 385536,
      "target": 34963
    }
  ],
  "materials": [
    {
      "name": "wire_121068000",
      "pbrMetallicRoughness": {
        "baseColorFactor": [
          0.4745,
          0.2667,
          0,
          1
        ],
        "metallicFactor": 0,
        "roughnessFactor": 0.968
      },
      "emissiveFactor": [
        0,
        0,
        0
      ],
      "alphaMode": "OPAQUE",
      "doubleSided": false
    },
    {
      "name": "wire_021103107",
      "pbrMetallicRoughness": {
        "baseColorFactor": [
          0.0824,
          0.4039,
          0.4196,
          1
        ],
        "metallicFactor": 0,
        "roughnessFactor": 0.968
      },
      "emissiveFactor": [
        0,
        0,
        0
      ],
      "alphaMode": "OPAQUE",
      "doubleSided": false
    },
    {
      "name": "wire_189189176",
      "pbrMetallicRoughness": {
        "baseColorFactor": [
          0.7412,
          0.7412,
          0.6902,
          1
        ],
        "metallicFactor": 0,
        "roughnessFactor": 0.968
      },
      "emissiveFactor": [
        0,
        0,
        0
      ],
      "alphaMode": "OPAQUE",
      "doubleSided": false
    },
    {
      "name": "wire_255255255",
      "pbrMetallicRoughness": {
        "baseColorFactor": [
          1,
          1,
          1,
          1
        ],
        "metallicFactor": 0,
        "roughnessFactor": 0.968
      },
      "emissiveFactor": [
        0,
        0,
        0
      ],
      "alphaMode": "OPAQUE",
      "doubleSided": false
    }
  ],
  "meshes": [
    {
      "name": "Line1008_1",
      "primitives": [
        {
          "attributes": {
            "POSITION": 0,
            "NORMAL": 1
          },
          "indices": 2,
          "material": 0,
          "mode": 4
        }
      ]
    },
    {
      "name": "Rectangle363_1",
      "primitives": [
        {
          "attributes": {
            "POSITION": 3,
            "NORMAL": 4
          },
          "indices": 5,
          "material": 1,
          "mode": 4
        }
      ]
    },
    {
      "name": "Rectangle435_1",
      "primitives": [
        {
          "attributes": {
            "POSITION": 6,
            "NORMAL": 7
          },
          "indices": 8,
          "material": 1,
          "mode": 4
        }
      ]
    },
    {
      "name": "Shape006_1",
      "primitives": [
        {
          "attributes": {
            "POSITION": 9,
            "NORMAL": 10
          },
          "indices": 11,
          "material": 2,
          "mode": 4
        }
      ]
    },
    {
      "name": "Line1011_1",
      "primitives": [
        {
          "attributes": {
            "POSITION": 12,
            "NORMAL": 13
          },
          "indices": 14,
          "material": 0,
          "mode": 4
        }
      ]
    },
    {
      "name": "Text084_1",
      "primitives": [
        {
          "attributes": {
            "POSITION": 15,
            "NORMAL": 16
          },
          "indices": 17,
          "material": 3,
          "mode": 4
        }
      ]
    },
    {
      "name": "Text085_1",
      "primitives": [
        {
          "attributes": {
            "POSITION": 18,
            "NORMAL": 19
          },
          "indices": 20,
          "material": 3,
          "mode": 4
        }
      ]
    },
    {
      "name": "Line1019_1",
      "primitives": [
        {
          "attributes": {
            "POSITION": 21,
            "NORMAL": 22
          },
          "indices": 23,
          "material": 3,
          "mode": 4
        }
      ]
    },
    {
      "name": "Donut046_1",
      "primitives": [
        {
          "attributes": {
            "POSITION": 24,
            "NORMAL": 25
          },
          "indices": 26,
          "material": 3,
          "mode": 4
        }
      ]
    },
    {
      "name": "Circle012_1",
      "primitives": [
        {
          "attributes": {
            "POSITION": 27,
            "NORMAL": 28
          },
          "indices": 29,
          "material": 3,
          "mode": 4
        }
      ]
    },
    {
      "name": "Line1020_1",
      "primitives": [
        {
          "attributes": {
            "POSITION": 30,
            "NORMAL": 31
          },
          "indices": 32,
          "material": 3,
          "mode": 4
        }
      ]
    },
    {
      "name": "Line1021_1",
      "primitives": [
        {
          "attributes": {
            "POSITION": 33,
            "NORMAL": 34
          },
          "indices": 35,
          "material": 3,
          "mode": 4
        }
      ]
    },
    {
      "name": "Text175_1",
      "primitives": [
        {
          "attributes": {
            "POSITION": 36,
            "NORMAL": 37
          },
          "indices": 38,
          "material": 3,
          "mode": 4
        }
      ]
    },
    {
      "name": "Text176_1",
      "primitives": [
        {
          "attributes": {
            "POSITION": 39,
            "NORMAL": 40
          },
          "indices": 41,
          "material": 3,
          "mode": 4
        }
      ]
    },
    {
      "name": "WRectangle004_1",
      "primitives": [
        {
          "attributes": {
            "POSITION": 42,
            "NORMAL": 43
          },
          "indices": 44,
          "material": 3,
          "mode": 4
        }
      ]
    }
  ],
  "nodes": [
    {
      "name": "Line1008",
      "mesh": 0
    },
    {
      "name": "Rectangle363",
      "mesh": 1
    },
    {
      "name": "Rectangle435",
      "mesh": 2
    },
    {
      "name": "Shape006",
      "mesh": 3
    },
    {
      "name": "Line1011",
      "mesh": 4
    },
    {
      "name": "Text084",
      "mesh": 5
    },
    {
      "name": "Text085",
      "mesh": 6
    },
    {
      "name": "Line1019",
      "mesh": 7
    },
    {
      "name": "Donut046",
      "mesh": 8
    },
    {
      "name": "Circle012",
      "mesh": 9
    },
    {
      "name": "Line1020",
      "mesh": 10
    },
    {
      "name": "Line1021",
      "mesh": 11
    },
    {
      "name": "Text175",
      "mesh": 12
    },
    {
      "name": "Text176",
      "mesh": 13
    },
    {
      "name": "WRectangle004",
      "mesh": 14
    }
  ],
  "scene": 0,
  "scenes": [
    {
      "nodes": [
        0,
        1,
        2,
        3,
        4,
        5,
        6,
        7,
        8,
        9,
        10,
        11,
        12,
        13,
        14
      ]
    }
  ]
}
